<svg xmlns="http://www.w3.org/2000/svg" width="48" height="48" viewBox="0 0 48 48" fill="none">
  <rect width="48" height="48" rx="24" fill="#dcfce7"/>
  <circle cx="24" cy="24" r="18" fill="#f0fdf4"/>
  <path d="M22.4 38.2c-5.7-1-10.1-5.9-10.1-11.9 0-7.5 5.6-12.5 13.5-12.5 4.5 0 7.4-1.7 9.6-4.1.5-.5 1.4-.3 1.6.4.7 2.4 1.4 5.4 1.4 8.8 0 10.9-6.6 18.1-16 19.3Z" fill="#16a34a"/>
  <path d="M12 38c4.8-9.6 12.2-15.7 22.7-18.9" stroke="#f0fdf4" stroke-width="3.6" stroke-linecap="round"/>
  <path d="M19.2 27.5c2.8.5 5.6-.1 8.1-1.8" stroke="#bbf7d0" stroke-width="2.2" stroke-linecap="round"/>
</svg>
